<svg width="903" height="76" viewBox="0 0 903 76" fill="none" xmlns="http://www.w3.org/2000/svg">
<path d="M13.9512 74L0.811238 1.09999H14.5812L22.4112 50.6L29.7012 1.09999H44.2812L30.9612 74H13.9512ZM61.5943 74V1.09999H77.7043V74H61.5943ZM119.355 75.08C113.895 75.08 109.575 74.12 106.395 72.2C103.215 70.28 100.935 67.52 99.5546 63.92C98.1746 60.32 97.4846 56.03 97.4846 51.05V23.96C97.4846 18.92 98.1746 14.63 99.5546 11.09C100.935 7.55 103.215 4.85 106.395 2.99C109.575 1.07 113.895 0.109996 119.355 0.109996C124.875 0.109996 129.225 1.07 132.405 2.99C135.645 4.85 137.955 7.55 139.335 11.09C140.715 14.63 141.405 18.92 141.405 23.96V51.05C141.405 56.03 140.715 60.32 139.335 63.92C137.955 67.52 135.645 70.28 132.405 72.2C129.225 74.12 124.875 75.08 119.355 75.08ZM119.355 63.65C121.035 63.65 122.265 63.23 123.045 62.39C123.825 61.55 124.335 60.47 124.575 59.15C124.815 57.83 124.935 56.48 124.935 55.1V20C124.935 18.56 124.815 17.21 124.575 15.95C124.335 14.63 123.825 13.55 123.045 12.71C122.265 11.87 121.035 11.45 119.355 11.45C117.795 11.45 116.625 11.87 115.845 12.71C115.065 13.55 114.555 14.63 114.315 15.95C114.075 17.21 113.955 18.56 113.955 20V55.1C113.955 56.48 114.045 57.83 114.225 59.15C114.465 60.47 114.945 61.55 115.665 62.39C116.445 63.23 117.675 63.65 119.355 63.65ZM161.109 74V1.09999H177.219V63.11H193.959V74H161.109ZM210.911 74V1.09999H243.671V12.08H227.021V30.17H239.711V41.33H227.021V63.11H243.851V74H210.911ZM267.635 74V13.07H256.655V1.09999H294.725V13.07H283.835V74H267.635ZM343.971 74V1.09999H376.731V12.08H360.081V30.17H372.771V41.33H360.081V63.11H376.911V74H343.971ZM403.845 74L390.705 1.09999H404.475L412.305 50.6L419.595 1.09999H434.175L420.855 74H403.845ZM451.398 74V1.09999H484.158V12.08H467.508V30.17H480.198V41.33H467.508V63.11H484.338V74H451.398ZM501.552 74V1.09999H521.622C526.542 1.09999 530.802 1.63999 534.402 2.72C538.002 3.8 540.792 5.75 542.772 8.56999C544.812 11.33 545.832 15.26 545.832 20.36C545.832 23.36 545.592 26.03 545.112 28.37C544.632 30.71 543.732 32.75 542.412 34.49C541.152 36.17 539.322 37.58 536.922 38.72L546.912 74H530.262L522.252 41.33H517.662V74H501.552ZM517.662 32.06H522.162C524.442 32.06 526.212 31.67 527.472 30.89C528.732 30.05 529.602 28.88 530.082 27.38C530.622 25.82 530.892 23.96 530.892 21.8C530.892 18.68 530.322 16.25 529.182 14.51C528.042 12.77 525.942 11.9 522.882 11.9H517.662V32.06ZM583.703 75.08C578.663 75.08 574.673 74.03 571.733 71.93C568.853 69.83 566.783 66.89 565.523 63.11C564.323 59.27 563.723 54.86 563.723 49.88V25.4C563.723 20.24 564.383 15.77 565.703 11.99C567.023 8.21 569.273 5.3 572.453 3.26C575.693 1.16 580.073 0.109996 585.593 0.109996C590.993 0.109996 595.223 1.01 598.283 2.81C601.403 4.61 603.623 7.1 604.943 10.28C606.263 13.46 606.923 17.18 606.923 21.44V26.12H591.173V20.18C591.173 18.62 591.053 17.18 590.813 15.86C590.633 14.54 590.153 13.49 589.373 12.71C588.653 11.87 587.453 11.45 585.773 11.45C584.033 11.45 582.773 11.93 581.993 12.89C581.213 13.79 580.703 14.93 580.463 16.31C580.283 17.69 580.193 19.13 580.193 20.63V54.38C580.193 56 580.343 57.53 580.643 58.97C581.003 60.35 581.603 61.49 582.443 62.39C583.343 63.23 584.603 63.65 586.223 63.65C587.903 63.65 589.193 63.2 590.093 62.3C590.993 61.4 591.623 60.23 591.983 58.79C592.343 57.35 592.523 55.82 592.523 54.2V45.65H585.953V36.2H607.013V74H596.393L595.493 67.97C594.533 70.01 593.123 71.72 591.263 73.1C589.403 74.42 586.883 75.08 583.703 75.08ZM623.486 74L637.256 1.09999H655.616L669.206 74H654.356L651.926 58.61H641.216L638.696 74H623.486ZM642.656 48.98H650.396L646.526 20.54L642.656 48.98ZM686.466 74V1.09999H706.536C711.456 1.09999 715.716 1.63999 719.316 2.72C722.916 3.8 725.706 5.75 727.686 8.56999C729.726 11.33 730.746 15.26 730.746 20.36C730.746 23.36 730.506 26.03 730.026 28.37C729.546 30.71 728.646 32.75 727.326 34.49C726.066 36.17 724.236 37.58 721.836 38.72L731.826 74H715.176L707.166 41.33H702.576V74H686.466ZM702.576 32.06H707.076C709.356 32.06 711.126 31.67 712.386 30.89C713.646 30.05 714.516 28.88 714.996 27.38C715.536 25.82 715.806 23.96 715.806 21.8C715.806 18.68 715.236 16.25 714.096 14.51C712.956 12.77 710.856 11.9 707.796 11.9H702.576V32.06ZM750.331 74V1.09999H768.781C775.141 1.09999 780.091 1.90999 783.631 3.53C787.171 5.09 789.661 7.58 791.101 11C792.541 14.36 793.261 18.74 793.261 24.14V50.6C793.261 56.06 792.541 60.53 791.101 64.01C789.661 67.43 787.171 69.95 783.631 71.57C780.151 73.19 775.261 74 768.961 74H750.331ZM766.441 62.84H768.961C771.421 62.84 773.191 62.48 774.271 61.76C775.351 61.04 776.011 59.96 776.251 58.52C776.551 57.08 776.701 55.28 776.701 53.12V21.35C776.701 19.19 776.521 17.45 776.161 16.13C775.861 14.81 775.171 13.85 774.091 13.25C773.011 12.65 771.271 12.35 768.871 12.35H766.441V62.84ZM812.966 74V1.09999H845.726V12.08H829.076V30.17H841.766V41.33H829.076V63.11H845.906V74H812.966ZM863.12 74V1.09999H874.46L889.4 36.2V1.09999H902.72V74H891.83L876.89 36.2V74H863.12Z" fill="#3A8BBA"/>
</svg>
