<svg width="178" height="25" viewBox="0 0 178 25" fill="none" xmlns="http://www.w3.org/2000/svg">
<path d="M0.552 11.24H9.936V11.696H0.552V11.24ZM0.672 19.544H11.376V20H0.192V3.2H11.016V3.656H0.672V19.544ZM16.2233 20V3.2H22.8713C24.5993 3.2 25.9673 3.56 26.9753 4.28C27.9993 4.984 28.5113 6.04 28.5113 7.448C28.5113 8.376 28.2873 9.152 27.8393 9.776C27.3913 10.384 26.7673 10.84 25.9673 11.144C25.1673 11.448 24.2473 11.6 23.2073 11.6L23.6153 11.288C24.9113 11.288 25.9833 11.456 26.8313 11.792C27.6953 12.112 28.3433 12.592 28.7753 13.232C29.2073 13.872 29.4233 14.664 29.4233 15.608C29.4233 17.016 28.9193 18.104 27.9113 18.872C26.9193 19.624 25.3993 20 23.3513 20H16.2233ZM16.7033 19.544H23.4473C25.2393 19.544 26.5993 19.232 27.5273 18.608C28.4713 17.968 28.9433 16.968 28.9433 15.608C28.9433 14.248 28.4713 13.256 27.5273 12.632C26.5993 12.008 25.2393 11.696 23.4473 11.696H16.5833V11.24H22.9673C24.5673 11.24 25.8073 10.92 26.6873 10.28C27.5833 9.64 28.0312 8.696 28.0312 7.448C28.0312 6.2 27.5833 5.256 26.6873 4.616C25.8073 3.976 24.5673 3.656 22.9673 3.656H16.7033V19.544ZM31.2004 20L39.0004 3.2H39.4804L47.2804 20H46.7284L39.1204 3.584H39.3604L31.7524 20H31.2004ZM33.7684 14.936L34.0084 14.48H44.4484L44.6884 14.936H33.7684ZM57.3054 20.072C56.0734 20.072 54.9294 19.864 53.8734 19.448C52.8334 19.016 51.9214 18.416 51.1374 17.648C50.3694 16.88 49.7694 15.984 49.3374 14.96C48.9054 13.936 48.6894 12.816 48.6894 11.6C48.6894 10.384 48.9054 9.264 49.3374 8.24C49.7694 7.216 50.3694 6.32 51.1374 5.552C51.9214 4.784 52.8334 4.192 53.8734 3.776C54.9294 3.344 56.0734 3.128 57.3054 3.128C58.4094 3.128 59.4574 3.304 60.4494 3.656C61.4414 4.008 62.2974 4.544 63.0174 5.264L62.7294 5.6C61.9614 4.864 61.1214 4.344 60.2094 4.04C59.2974 3.736 58.3294 3.584 57.3054 3.584C56.1534 3.584 55.0814 3.792 54.0894 4.208C53.0974 4.608 52.2334 5.176 51.4974 5.912C50.7614 6.632 50.1854 7.48 49.7694 8.456C49.3694 9.416 49.1694 10.464 49.1694 11.6C49.1694 12.736 49.3694 13.792 49.7694 14.768C50.1854 15.728 50.7614 16.576 51.4974 17.312C52.2334 18.032 53.0974 18.6 54.0894 19.016C55.0814 19.416 56.1534 19.616 57.3054 19.616C58.3294 19.616 59.2974 19.464 60.2094 19.16C61.1214 18.84 61.9614 18.312 62.7294 17.576L63.0174 17.912C62.2974 18.632 61.4414 19.176 60.4494 19.544C59.4574 19.896 58.4094 20.072 57.3054 20.072Z" fill="black"/>
<path d="M72.8128 20V3.2H81.4048C83.6128 3.2 85.2608 3.608 86.3488 4.424C87.4368 5.224 87.9808 6.28 87.9808 7.592C87.9808 8.456 87.7488 9.216 87.2848 9.872C86.8368 10.512 86.1968 11.024 85.3648 11.408C84.5488 11.776 83.5728 11.96 82.4368 11.96L82.9168 10.808C84.1008 10.808 85.1328 10.992 86.0128 11.36C86.8928 11.712 87.5728 12.232 88.0528 12.92C88.5488 13.592 88.7968 14.416 88.7968 15.392C88.7968 16.848 88.2048 17.984 87.0208 18.8C85.8528 19.6 84.1408 20 81.8848 20H72.8128ZM77.5168 16.568H81.5008C82.3168 16.568 82.9328 16.432 83.3488 16.16C83.7808 15.872 83.9968 15.44 83.9968 14.864C83.9968 14.288 83.7808 13.864 83.3488 13.592C82.9328 13.304 82.3168 13.16 81.5008 13.16H77.1808V9.872H80.7808C81.5808 9.872 82.1808 9.736 82.5808 9.464C82.9808 9.192 83.1808 8.784 83.1808 8.24C83.1808 7.696 82.9808 7.296 82.5808 7.04C82.1808 6.768 81.5808 6.632 80.7808 6.632H77.5168V16.568ZM98.9861 20V17.576L98.6741 16.976V12.512C98.6741 11.792 98.4501 11.24 98.0021 10.856C97.5701 10.456 96.8741 10.256 95.9141 10.256C95.2901 10.256 94.6581 10.36 94.0181 10.568C93.3781 10.76 92.8341 11.032 92.3861 11.384L90.8501 8.288C91.5861 7.808 92.4661 7.44 93.4901 7.184C94.5301 6.912 95.5621 6.776 96.5861 6.776C98.6981 6.776 100.33 7.264 101.482 8.24C102.65 9.2 103.234 10.712 103.234 12.776V20H98.9861ZM95.1461 20.216C94.1061 20.216 93.2261 20.04 92.5061 19.688C91.7861 19.336 91.2341 18.856 90.8501 18.248C90.4821 17.64 90.2981 16.96 90.2981 16.208C90.2981 15.408 90.4981 14.72 90.8981 14.144C91.3141 13.552 91.9461 13.104 92.7941 12.8C93.6421 12.48 94.7381 12.32 96.0821 12.32H99.1541V14.696H96.7061C95.9701 14.696 95.4501 14.816 95.1461 15.056C94.8581 15.296 94.7141 15.616 94.7141 16.016C94.7141 16.416 94.8661 16.736 95.1701 16.976C95.4741 17.216 95.8901 17.336 96.4181 17.336C96.9141 17.336 97.3621 17.216 97.7621 16.976C98.1781 16.72 98.4821 16.336 98.6741 15.824L99.2981 17.504C99.0581 18.4 98.5861 19.08 97.8821 19.544C97.1941 19.992 96.2821 20.216 95.1461 20.216ZM114.584 6.776C115.592 6.776 116.504 6.984 117.32 7.4C118.136 7.8 118.776 8.424 119.24 9.272C119.72 10.12 119.96 11.216 119.96 12.56V20H115.4V13.304C115.4 12.376 115.208 11.704 114.824 11.288C114.456 10.856 113.936 10.64 113.264 10.64C112.784 10.64 112.344 10.752 111.944 10.976C111.544 11.184 111.232 11.512 111.008 11.96C110.784 12.408 110.672 12.992 110.672 13.712V20H106.112V6.992H110.456V10.688L109.616 9.608C110.112 8.664 110.792 7.96 111.656 7.496C112.52 7.016 113.496 6.776 114.584 6.776ZM126.615 17.6L126.735 12.152L132.039 6.992H137.439L131.559 13.064L129.231 14.936L126.615 17.6ZM122.823 20V2.192H127.383V20H122.823ZM132.375 20L128.391 15.008L131.223 11.504L137.895 20H132.375ZM139.277 20V6.992H143.837V20H139.277ZM141.557 5.552C140.725 5.552 140.053 5.32 139.541 4.856C139.029 4.392 138.773 3.816 138.773 3.128C138.773 2.44 139.029 1.864 139.541 1.4C140.053 0.935999 140.725 0.704 141.557 0.704C142.389 0.704 143.061 0.927999 143.573 1.376C144.085 1.808 144.341 2.368 144.341 3.056C144.341 3.776 144.085 4.376 143.573 4.856C143.077 5.32 142.405 5.552 141.557 5.552ZM155.272 6.776C156.28 6.776 157.192 6.984 158.008 7.4C158.824 7.8 159.464 8.424 159.928 9.272C160.408 10.12 160.648 11.216 160.648 12.56V20H156.088V13.304C156.088 12.376 155.896 11.704 155.512 11.288C155.144 10.856 154.624 10.64 153.952 10.64C153.472 10.64 153.032 10.752 152.632 10.976C152.232 11.184 151.92 11.512 151.696 11.96C151.472 12.408 151.36 12.992 151.36 13.712V20H146.8V6.992H151.144V10.688L150.304 9.608C150.8 8.664 151.48 7.96 152.344 7.496C153.208 7.016 154.184 6.776 155.272 6.776ZM170.035 24.872C168.787 24.872 167.595 24.728 166.459 24.44C165.339 24.152 164.379 23.728 163.579 23.168L165.235 19.976C165.779 20.408 166.451 20.744 167.251 20.984C168.067 21.24 168.859 21.368 169.627 21.368C170.859 21.368 171.747 21.096 172.291 20.552C172.835 20.024 173.107 19.248 173.107 18.224V16.688L173.347 13.04L173.323 9.368V6.992H177.667V17.624C177.667 20.088 177.003 21.912 175.675 23.096C174.347 24.28 172.467 24.872 170.035 24.872ZM169.243 19.328C168.091 19.328 167.027 19.072 166.051 18.56C165.091 18.032 164.315 17.304 163.723 16.376C163.147 15.432 162.859 14.32 162.859 13.04C162.859 11.76 163.147 10.656 163.723 9.728C164.315 8.784 165.091 8.056 166.051 7.544C167.027 7.032 168.091 6.776 169.243 6.776C170.347 6.776 171.291 7 172.075 7.448C172.859 7.88 173.451 8.56 173.851 9.488C174.267 10.416 174.475 11.6 174.475 13.04C174.475 14.48 174.267 15.664 173.851 16.592C173.451 17.52 172.859 18.208 172.075 18.656C171.291 19.104 170.347 19.328 169.243 19.328ZM170.323 15.704C170.867 15.704 171.347 15.592 171.763 15.368C172.195 15.144 172.531 14.832 172.771 14.432C173.027 14.032 173.155 13.568 173.155 13.04C173.155 12.512 173.027 12.048 172.771 11.648C172.531 11.248 172.195 10.944 171.763 10.736C171.347 10.512 170.867 10.4 170.323 10.4C169.779 10.4 169.291 10.512 168.859 10.736C168.427 10.944 168.083 11.248 167.827 11.648C167.587 12.048 167.467 12.512 167.467 13.04C167.467 13.568 167.587 14.032 167.827 14.432C168.083 14.832 168.427 15.144 168.859 15.368C169.291 15.592 169.779 15.704 170.323 15.704Z" fill="#10AC84"/>
</svg>
